<svg width="88" height="88" viewBox="0 0 88 88" fill="none" xmlns="http://www.w3.org/2000/svg">
<g clip-path="url(#clip0_153_3023)">
<circle cx="44" cy="44" r="44" fill="white"/>
<path d="M61 46.5C62.3807 46.5 63.5 45.3807 63.5 44C63.5 42.6193 62.3807 41.5 61 41.5L61 46.5ZM25.2322 42.2322C24.2559 43.2085 24.2559 44.7915 25.2322 45.7678L41.1421 61.6777C42.1184 62.654 43.7014 62.654 44.6777 61.6777C45.654 60.7014 45.654 59.1184 44.6777 58.1421L30.5355 44L44.6777 29.8579C45.654 28.8816 45.654 27.2986 44.6777 26.3223C43.7014 25.346 42.1184 25.346 41.1421 26.3223L25.2322 42.2322ZM61 41.5L27 41.5L27 46.5L61 46.5L61 41.5Z" fill="black"/>
</g>
<defs>
<clipPath id="clip0_153_3023">
<rect width="88" height="88" fill="white"/>
</clipPath>
</defs>
</svg>
