<svg width="1165" height="218" viewBox="0 0 1165 218" fill="none" xmlns="http://www.w3.org/2000/svg">
<mask id="mask0_86_305" style="mask-type:alpha" maskUnits="userSpaceOnUse" x="0" y="0" width="1165" height="218">
<ellipse cx="582.5" cy="109" rx="582.5" ry="109" fill="black"/>
</mask>
<g mask="url(#mask0_86_305)">
<path d="M184.856 123.536C179.48 123.536 174.488 122.704 169.88 121.04C165.336 119.312 161.368 116.88 157.976 113.744C154.648 110.608 152.056 106.896 150.2 102.608C148.344 98.32 147.416 93.584 147.416 88.4C147.416 83.216 148.344 78.48 150.2 74.192C152.056 69.904 154.648 66.192 157.976 63.056C161.368 59.92 165.336 57.52 169.88 55.856C174.488 54.128 179.48 53.264 184.856 53.264C191.448 53.264 197.272 54.416 202.328 56.72C207.448 59.024 211.672 62.352 215 66.704L200.696 79.472C198.712 76.976 196.504 75.056 194.072 73.712C191.704 72.304 189.016 71.6 186.008 71.6C183.64 71.6 181.496 71.984 179.576 72.752C177.656 73.52 175.992 74.64 174.584 76.112C173.24 77.584 172.184 79.376 171.416 81.488C170.648 83.536 170.264 85.84 170.264 88.4C170.264 90.96 170.648 93.296 171.416 95.408C172.184 97.456 173.24 99.216 174.584 100.688C175.992 102.16 177.656 103.28 179.576 104.048C181.496 104.816 183.64 105.2 186.008 105.2C189.016 105.2 191.704 104.528 194.072 103.184C196.504 101.776 198.712 99.824 200.696 97.328L215 110.096C211.672 114.384 207.448 117.712 202.328 120.08C197.272 122.384 191.448 123.536 184.856 123.536ZM265.126 54.8H287.782V122H265.126V54.8ZM244.198 122H221.542V54.8H244.198V122ZM266.662 97.232H242.662V78.608H266.662V97.232ZM298.698 122V54.8H321.354V122H298.698ZM367.012 123.536C361.636 123.536 356.644 122.704 352.036 121.04C347.492 119.312 343.524 116.88 340.132 113.744C336.804 110.608 334.212 106.896 332.356 102.608C330.5 98.32 329.572 93.584 329.572 88.4C329.572 83.216 330.5 78.48 332.356 74.192C334.212 69.904 336.804 66.192 340.132 63.056C343.524 59.92 347.492 57.52 352.036 55.856C356.644 54.128 361.636 53.264 367.012 53.264C373.604 53.264 379.428 54.416 384.484 56.72C389.604 59.024 393.828 62.352 397.156 66.704L382.852 79.472C380.868 76.976 378.66 75.056 376.228 73.712C373.86 72.304 371.172 71.6 368.164 71.6C365.796 71.6 363.652 71.984 361.732 72.752C359.812 73.52 358.148 74.64 356.74 76.112C355.396 77.584 354.34 79.376 353.572 81.488C352.804 83.536 352.42 85.84 352.42 88.4C352.42 90.96 352.804 93.296 353.572 95.408C354.34 97.456 355.396 99.216 356.74 100.688C358.148 102.16 359.812 103.28 361.732 104.048C363.652 104.816 365.796 105.2 368.164 105.2C371.172 105.2 373.86 104.528 376.228 103.184C378.66 101.776 380.868 99.824 382.852 97.328L397.156 110.096C393.828 114.384 389.604 117.712 384.484 120.08C379.428 122.384 373.604 123.536 367.012 123.536ZM423.954 107.6L422.706 82.736L448.05 54.8H472.722L444.306 86.096L431.73 98.96L423.954 107.6ZM403.698 122V54.8H425.97V122H403.698ZM447.858 122L428.082 95.888L442.77 80.336L474.066 122H447.858ZM497.84 79.76H527.792V96.08H497.84V79.76ZM499.376 104.912H532.976V122H477.104V54.8H531.728V71.888H499.376V104.912ZM541.698 122V54.8H560.322L594.498 95.696H585.858V54.8H607.938V122H589.314L555.138 81.104H563.778V122H541.698ZM647.635 122V54.8H683.539C692.819 54.8 699.667 56.464 704.083 59.792C708.499 63.056 710.707 67.248 710.707 72.368C710.707 75.76 709.747 78.8 707.827 81.488C705.971 84.112 703.251 86.192 699.667 87.728C696.083 89.264 691.667 90.032 686.419 90.032L688.339 84.848C693.587 84.848 698.099 85.584 701.875 87.056C705.715 88.528 708.659 90.672 710.707 93.488C712.819 96.24 713.875 99.568 713.875 103.472C713.875 109.296 711.443 113.84 706.579 117.104C701.779 120.368 694.739 122 685.459 122H647.635ZM669.907 106.16H683.539C686.035 106.16 687.891 105.712 689.107 104.816C690.387 103.92 691.027 102.608 691.027 100.88C691.027 99.152 690.387 97.84 689.107 96.944C687.891 96.048 686.035 95.6 683.539 95.6H668.371V80.624H680.467C683.027 80.624 684.883 80.208 686.035 79.376C687.251 78.48 687.859 77.232 687.859 75.632C687.859 73.968 687.251 72.72 686.035 71.888C684.883 71.056 683.027 70.64 680.467 70.64H669.907V106.16ZM714.589 122L743.965 54.8H766.237L795.613 122H772.189L750.493 65.552H759.325L737.629 122H714.589ZM732.061 110.288L737.821 93.968H768.733L774.493 110.288H732.061ZM833.044 123.536C827.668 123.536 822.676 122.704 818.068 121.04C813.524 119.312 809.556 116.88 806.164 113.744C802.836 110.608 800.244 106.896 798.388 102.608C796.532 98.32 795.604 93.584 795.604 88.4C795.604 83.216 796.532 78.48 798.388 74.192C800.244 69.904 802.836 66.192 806.164 63.056C809.556 59.92 813.524 57.52 818.068 55.856C822.676 54.128 827.668 53.264 833.044 53.264C839.636 53.264 845.46 54.416 850.516 56.72C855.636 59.024 859.86 62.352 863.188 66.704L848.884 79.472C846.9 76.976 844.692 75.056 842.26 73.712C839.892 72.304 837.204 71.6 834.196 71.6C831.828 71.6 829.684 71.984 827.764 72.752C825.844 73.52 824.18 74.64 822.772 76.112C821.428 77.584 820.372 79.376 819.604 81.488C818.836 83.536 818.452 85.84 818.452 88.4C818.452 90.96 818.836 93.296 819.604 95.408C820.372 97.456 821.428 99.216 822.772 100.688C824.18 102.16 825.844 103.28 827.764 104.048C829.684 104.816 831.828 105.2 834.196 105.2C837.204 105.2 839.892 104.528 842.26 103.184C844.692 101.776 846.9 99.824 848.884 97.328L863.188 110.096C859.86 114.384 855.636 117.712 850.516 120.08C845.46 122.384 839.636 123.536 833.044 123.536ZM903.555 123.536C898.115 123.536 893.059 122.672 888.387 120.944C883.779 119.216 879.779 116.784 876.387 113.648C872.995 110.448 870.339 106.704 868.419 102.416C866.563 98.128 865.635 93.456 865.635 88.4C865.635 83.28 866.563 78.608 868.419 74.384C870.339 70.096 872.995 66.384 876.387 63.248C879.779 60.048 883.779 57.584 888.387 55.856C893.059 54.128 898.115 53.264 903.555 53.264C909.059 53.264 914.115 54.128 918.723 55.856C923.331 57.584 927.331 60.048 930.723 63.248C934.115 66.384 936.739 70.096 938.595 74.384C940.515 78.608 941.475 83.28 941.475 88.4C941.475 93.456 940.515 98.128 938.595 102.416C936.739 106.704 934.115 110.448 930.723 113.648C927.331 116.784 923.331 119.216 918.723 120.944C914.115 122.672 909.059 123.536 903.555 123.536ZM903.555 105.2C905.667 105.2 907.619 104.816 909.411 104.048C911.267 103.28 912.867 102.192 914.211 100.784C915.619 99.312 916.707 97.552 917.475 95.504C918.243 93.392 918.627 91.024 918.627 88.4C918.627 85.776 918.243 83.44 917.475 81.392C916.707 79.28 915.619 77.52 914.211 76.112C912.867 74.64 911.267 73.52 909.411 72.752C907.619 71.984 905.667 71.6 903.555 71.6C901.443 71.6 899.459 71.984 897.603 72.752C895.811 73.52 894.211 74.64 892.803 76.112C891.459 77.52 890.403 79.28 889.635 81.392C888.867 83.44 888.483 85.776 888.483 88.4C888.483 91.024 888.867 93.392 889.635 95.504C890.403 97.552 891.459 99.312 892.803 100.784C894.211 102.192 895.811 103.28 897.603 104.048C899.459 104.816 901.443 105.2 903.555 105.2ZM949.698 122V54.8H968.322L1002.5 95.696H993.858V54.8H1015.94V122H997.314L963.138 81.104H971.778V122H949.698ZM55.7916 212V144.8H91.6956C100.976 144.8 107.824 146.464 112.24 149.792C116.656 153.056 118.864 157.248 118.864 162.368C118.864 165.76 117.904 168.8 115.984 171.488C114.128 174.112 111.408 176.192 107.824 177.728C104.24 179.264 99.8236 180.032 94.5756 180.032L96.4956 174.848C101.744 174.848 106.256 175.584 110.032 177.056C113.872 178.528 116.816 180.672 118.864 183.488C120.976 186.24 122.032 189.568 122.032 193.472C122.032 199.296 119.6 203.84 114.736 207.104C109.936 210.368 102.896 212 93.6156 212H55.7916ZM78.0636 196.16H91.6956C94.1916 196.16 96.0476 195.712 97.2636 194.816C98.5436 193.92 99.1836 192.608 99.1836 190.88C99.1836 189.152 98.5436 187.84 97.2636 186.944C96.0476 186.048 94.1916 185.6 91.6956 185.6H76.5276V170.624H88.6236C91.1836 170.624 93.0396 170.208 94.1916 169.376C95.4076 168.48 96.0156 167.232 96.0156 165.632C96.0156 163.968 95.4076 162.72 94.1916 161.888C93.0396 161.056 91.1836 160.64 88.6236 160.64H78.0636V196.16ZM130.042 212V144.8H162.394C168.666 144.8 174.074 145.824 178.618 147.872C183.226 149.92 186.778 152.864 189.274 156.704C191.77 160.48 193.018 164.96 193.018 170.144C193.018 175.328 191.77 179.808 189.274 183.584C186.778 187.296 183.226 190.144 178.618 192.128C174.074 194.112 168.666 195.104 162.394 195.104H142.618L152.698 185.792V212H130.042ZM170.266 212L153.754 187.52H177.754L194.458 212H170.266ZM152.698 188.288L142.618 178.016H160.954C164.09 178.016 166.394 177.312 167.866 175.904C169.402 174.496 170.17 172.576 170.17 170.144C170.17 167.712 169.402 165.792 167.866 164.384C166.394 162.976 164.09 162.272 160.954 162.272H142.618L152.698 152V188.288ZM236.805 213.536C231.365 213.536 226.309 212.672 221.637 210.944C217.029 209.216 213.029 206.784 209.637 203.648C206.245 200.448 203.589 196.704 201.669 192.416C199.813 188.128 198.885 183.456 198.885 178.4C198.885 173.28 199.813 168.608 201.669 164.384C203.589 160.096 206.245 156.384 209.637 153.248C213.029 150.048 217.029 147.584 221.637 145.856C226.309 144.128 231.365 143.264 236.805 143.264C242.309 143.264 247.365 144.128 251.973 145.856C256.581 147.584 260.581 150.048 263.973 153.248C267.365 156.384 269.989 160.096 271.845 164.384C273.765 168.608 274.725 173.28 274.725 178.4C274.725 183.456 273.765 188.128 271.845 192.416C269.989 196.704 267.365 200.448 263.973 203.648C260.581 206.784 256.581 209.216 251.973 210.944C247.365 212.672 242.309 213.536 236.805 213.536ZM236.805 195.2C238.917 195.2 240.869 194.816 242.661 194.048C244.517 193.28 246.117 192.192 247.461 190.784C248.869 189.312 249.957 187.552 250.725 185.504C251.493 183.392 251.877 181.024 251.877 178.4C251.877 175.776 251.493 173.44 250.725 171.392C249.957 169.28 248.869 167.52 247.461 166.112C246.117 164.64 244.517 163.52 242.661 162.752C240.869 161.984 238.917 161.6 236.805 161.6C234.693 161.6 232.709 161.984 230.853 162.752C229.061 163.52 227.461 164.64 226.053 166.112C224.709 167.52 223.653 169.28 222.885 171.392C222.117 173.44 221.733 175.776 221.733 178.4C221.733 181.024 222.117 183.392 222.885 185.504C223.653 187.552 224.709 189.312 226.053 190.784C227.461 192.192 229.061 193.28 230.853 194.048C232.709 194.816 234.693 195.2 236.805 195.2ZM317.7 213.536C312.324 213.536 307.332 212.704 302.724 211.04C298.18 209.312 294.212 206.88 290.82 203.744C287.492 200.608 284.9 196.896 283.044 192.608C281.188 188.32 280.26 183.584 280.26 178.4C280.26 173.216 281.188 168.48 283.044 164.192C284.9 159.904 287.492 156.192 290.82 153.056C294.212 149.92 298.18 147.52 302.724 145.856C307.332 144.128 312.324 143.264 317.7 143.264C324.292 143.264 330.116 144.416 335.172 146.72C340.292 149.024 344.516 152.352 347.844 156.704L333.54 169.472C331.556 166.976 329.348 165.056 326.916 163.712C324.548 162.304 321.86 161.6 318.852 161.6C316.484 161.6 314.34 161.984 312.42 162.752C310.5 163.52 308.836 164.64 307.428 166.112C306.084 167.584 305.028 169.376 304.26 171.488C303.492 173.536 303.108 175.84 303.108 178.4C303.108 180.96 303.492 183.296 304.26 185.408C305.028 187.456 306.084 189.216 307.428 190.688C308.836 192.16 310.5 193.28 312.42 194.048C314.34 194.816 316.484 195.2 318.852 195.2C321.86 195.2 324.548 194.528 326.916 193.184C329.348 191.776 331.556 189.824 333.54 187.328L347.844 200.096C344.516 204.384 340.292 207.712 335.172 210.08C330.116 212.384 324.292 213.536 317.7 213.536ZM387.731 213.536C382.355 213.536 377.363 212.704 372.755 211.04C368.211 209.312 364.243 206.88 360.851 203.744C357.523 200.608 354.931 196.896 353.075 192.608C351.219 188.32 350.291 183.584 350.291 178.4C350.291 173.216 351.219 168.48 353.075 164.192C354.931 159.904 357.523 156.192 360.851 153.056C364.243 149.92 368.211 147.52 372.755 145.856C377.363 144.128 382.355 143.264 387.731 143.264C394.323 143.264 400.147 144.416 405.203 146.72C410.323 149.024 414.547 152.352 417.875 156.704L403.571 169.472C401.587 166.976 399.379 165.056 396.947 163.712C394.579 162.304 391.891 161.6 388.883 161.6C386.515 161.6 384.371 161.984 382.451 162.752C380.531 163.52 378.867 164.64 377.459 166.112C376.115 167.584 375.059 169.376 374.291 171.488C373.523 173.536 373.139 175.84 373.139 178.4C373.139 180.96 373.523 183.296 374.291 185.408C375.059 187.456 376.115 189.216 377.459 190.688C378.867 192.16 380.531 193.28 382.451 194.048C384.371 194.816 386.515 195.2 388.883 195.2C391.891 195.2 394.579 194.528 396.947 193.184C399.379 191.776 401.587 189.824 403.571 187.328L417.875 200.096C414.547 204.384 410.323 207.712 405.203 210.08C400.147 212.384 394.323 213.536 387.731 213.536ZM458.242 213.536C452.802 213.536 447.746 212.672 443.074 210.944C438.466 209.216 434.466 206.784 431.074 203.648C427.682 200.448 425.026 196.704 423.106 192.416C421.25 188.128 420.322 183.456 420.322 178.4C420.322 173.28 421.25 168.608 423.106 164.384C425.026 160.096 427.682 156.384 431.074 153.248C434.466 150.048 438.466 147.584 443.074 145.856C447.746 144.128 452.802 143.264 458.242 143.264C463.746 143.264 468.802 144.128 473.41 145.856C478.018 147.584 482.018 150.048 485.41 153.248C488.802 156.384 491.426 160.096 493.282 164.384C495.202 168.608 496.162 173.28 496.162 178.4C496.162 183.456 495.202 188.128 493.282 192.416C491.426 196.704 488.802 200.448 485.41 203.648C482.018 206.784 478.018 209.216 473.41 210.944C468.802 212.672 463.746 213.536 458.242 213.536ZM458.242 195.2C460.354 195.2 462.306 194.816 464.098 194.048C465.954 193.28 467.554 192.192 468.898 190.784C470.306 189.312 471.394 187.552 472.162 185.504C472.93 183.392 473.314 181.024 473.314 178.4C473.314 175.776 472.93 173.44 472.162 171.392C471.394 169.28 470.306 167.52 468.898 166.112C467.554 164.64 465.954 163.52 464.098 162.752C462.306 161.984 460.354 161.6 458.242 161.6C456.13 161.6 454.146 161.984 452.29 162.752C450.498 163.52 448.898 164.64 447.49 166.112C446.146 167.52 445.09 169.28 444.322 171.392C443.554 173.44 443.17 175.776 443.17 178.4C443.17 181.024 443.554 183.392 444.322 185.504C445.09 187.552 446.146 189.312 447.49 190.784C448.898 192.192 450.498 193.28 452.29 194.048C454.146 194.816 456.13 195.2 458.242 195.2ZM504.385 212V144.8H527.041V194.432H557.377V212H504.385ZM563.635 212V144.8H586.291V212H563.635ZM618.683 212L648.059 144.8H670.331L699.707 212H676.283L654.587 155.552H663.419L641.723 212H618.683ZM636.155 200.288L641.915 183.968H672.827L678.587 200.288H636.155ZM703.323 212V144.8H725.979V194.432H756.315V212H703.323ZM783.693 173.408H813.261V190.496H783.693V173.408ZM785.229 212H762.573V144.8H817.197V161.888H785.229V212ZM824.354 212V144.8H856.706C862.978 144.8 868.386 145.824 872.93 147.872C877.538 149.92 881.09 152.864 883.586 156.704C886.082 160.48 887.33 164.96 887.33 170.144C887.33 175.328 886.082 179.808 883.586 183.584C881.09 187.296 877.538 190.144 872.93 192.128C868.386 194.112 862.978 195.104 856.706 195.104H836.93L847.01 185.792V212H824.354ZM864.578 212L848.066 187.52H872.066L888.77 212H864.578ZM847.01 188.288L836.93 178.016H855.266C858.402 178.016 860.706 177.312 862.178 175.904C863.714 174.496 864.482 172.576 864.482 170.144C864.482 167.712 863.714 165.792 862.178 164.384C860.706 162.976 858.402 162.272 855.266 162.272H836.93L847.01 152V188.288ZM916.621 169.76H946.573V186.08H916.621V169.76ZM918.157 194.912H951.757V212H895.885V144.8H950.509V161.888H918.157V194.912ZM960.479 212V144.8H993.599C1001.09 144.8 1007.68 146.176 1013.38 148.928C1019.07 151.616 1023.52 155.456 1026.72 160.448C1029.92 165.44 1031.52 171.392 1031.52 178.304C1031.52 185.28 1029.92 191.296 1026.72 196.352C1023.52 201.344 1019.07 205.216 1013.38 207.968C1007.68 210.656 1001.09 212 993.599 212H960.479ZM983.135 194.336H992.639C995.839 194.336 998.623 193.728 1000.99 192.512C1003.42 191.296 1005.31 189.504 1006.66 187.136C1008 184.704 1008.67 181.76 1008.67 178.304C1008.67 174.912 1008 172.032 1006.66 169.664C1005.31 167.296 1003.42 165.504 1000.99 164.288C998.623 163.072 995.839 162.464 992.639 162.464H983.135V194.336ZM1075.02 213.536C1069.58 213.536 1064.53 212.672 1059.86 210.944C1055.25 209.216 1051.25 206.784 1047.86 203.648C1044.46 200.448 1041.81 196.704 1039.89 192.416C1038.03 188.128 1037.1 183.456 1037.1 178.4C1037.1 173.28 1038.03 168.608 1039.89 164.384C1041.81 160.096 1044.46 156.384 1047.86 153.248C1051.25 150.048 1055.25 147.584 1059.86 145.856C1064.53 144.128 1069.58 143.264 1075.02 143.264C1080.53 143.264 1085.58 144.128 1090.19 145.856C1094.8 147.584 1098.8 150.048 1102.19 153.248C1105.58 156.384 1108.21 160.096 1110.06 164.384C1111.98 168.608 1112.94 173.28 1112.94 178.4C1112.94 183.456 1111.98 188.128 1110.06 192.416C1108.21 196.704 1105.58 200.448 1102.19 203.648C1098.8 206.784 1094.8 209.216 1090.19 210.944C1085.58 212.672 1080.53 213.536 1075.02 213.536ZM1075.02 195.2C1077.14 195.2 1079.09 194.816 1080.88 194.048C1082.74 193.28 1084.34 192.192 1085.68 190.784C1087.09 189.312 1088.18 187.552 1088.94 185.504C1089.71 183.392 1090.1 181.024 1090.1 178.4C1090.1 175.776 1089.71 173.44 1088.94 171.392C1088.18 169.28 1087.09 167.52 1085.68 166.112C1084.34 164.64 1082.74 163.52 1080.88 162.752C1079.09 161.984 1077.14 161.6 1075.02 161.6C1072.91 161.6 1070.93 161.984 1069.07 162.752C1067.28 163.52 1065.68 164.64 1064.27 166.112C1062.93 167.52 1061.87 169.28 1061.1 171.392C1060.34 173.44 1059.95 175.776 1059.95 178.4C1059.95 181.024 1060.34 183.392 1061.1 185.504C1061.87 187.552 1062.93 189.312 1064.27 190.784C1065.68 192.192 1067.28 193.28 1069.07 194.048C1070.93 194.816 1072.91 195.2 1075.02 195.2Z" fill="white"/>
</g>
</svg>
